<?xml version="1.0" encoding="utf-8"?>
<!-- Generator: Adobe Illustrator 22.1.0, SVG Export Plug-In . SVG Version: 6.00 Build 0)  -->
<svg version="1.1" id="Слой_1" xmlns="http://www.w3.org/2000/svg" xmlns:xlink="http://www.w3.org/1999/xlink" x="0px" y="0px"
	 viewBox="0 0 228 228" style="enable-background:new 0 0 228 228;" xml:space="preserve">
<style type="text/css">
	.st0{fill:#FFF0DE;}
</style>
<path class="st0" d="M4.1,249.9h2v-52.4L2,194.4l0.8-4.4h9.6l1-10.5H23v-43.5l-2.8-2.8l-2.3-6.1l2.8-3.1l2.2,5L33,114.2V90.5
	l-2.9-5.4l5.6-5.6v-11h2.7v9.5h5.7V57.2h-7.4c0.3-3,2-6.8,5.1-11.7l0.5-0.9c2.8-4.6,4.7-7.9,6.5-8.7l0.5-0.3L50,24.8l4.3-1.1V10.8
	h1.7v12.9l4.7,1.1v10.7l0.4,0.3c2.5,2,5.1,5.6,7.6,10.7c1.6,3.6,2.7,7.2,3.4,10.7h-7.7v20.9h5.7v-9.5h3.3v10.9l4.6,5.6l-2.5,5.5
	v23.6l8.5,15.2l2.4-5.3l3.8,3.4l-2.2,5.7l-5,1.7v35.4H116l-7.9-7.2v-7h6.3v-37.2h-6.3v-14.4h7.4v-5.7h23.3V82.9h-9v-9.1h6.5
	l5.1-10.7l0-0.2c1.7-20.9,7.3-41.3,16.8-60.7c9.8-20,24.1-34.6,43.9-44.7l5.9-1.8V-57h6.3v-16.9h6.9v-29.3h-3.7v-6.4h4.8v-7.8h1.6
	v-22h-4.2v-2.2c4-2.9,6.9-6.1,9.4-10c1.9-3.7,5.1-7.2,10.3-11.3l0.4-0.3v-10h1.1v-3.6h-2.3l-0.7-3l3-1v-4.5h2.2v4.5l3,1l-0.7,3h-2.3
	v3.6h1.1v10l0.3,0.3c4.2,3.7,7.3,7.3,9.9,11.4c2.6,4.1,5.8,7.3,9.9,10v2.1h-4.8v22h2.1v7.8h4.8v6.4h-3.7v29.3h6.9V-57h6.3v12.8
	l5.4,1.8c19.7,9.5,34,24.1,43.9,44.7c6.2,12.6,10.7,25.7,13.9,40.2c1.7,7.6,2.8,14.3,3.5,20.5l0,0.2l5.1,10.7h6v9.1h-8.5v15.7h23.3
	v5.7h6.4v14.4h-5.3v37.2h5.3v7l-6.5,7.2H401v-35.4l-5-1.7l-2.3-5.8l3-3.3l3.4,5l8.3-14.8V90.6l-2.5-5.4l4.6-5.6V68.6h2.8v9.5h5.7
	V57.2h-7.4c0.2-8.6,3.7-15.8,10.2-21.4l0.3-0.3l1-10.7l4.8-1.1V10.8h1.7v12.9l3.8,1.1l1,10.8l0.4,0.3c1,0.6,2.4,2.8,4.3,5.6
	c0.8,1.2,1.8,2.6,2.8,4.1c3.1,4.9,4.8,8.7,5.1,11.7h-8.4v20.9h6.8v-9.5h2.8v10.9l4.6,5.7l-2,5.5v23.5l9.1,15.1l2.3-5.3l3.7,3.4
	l-2.3,6l-2.8,2.8v43.4h9.6l1.1,10.5h8.5l0.8,4.5l-3.1,3.1v52.3h2v-51.5l3.3-3.2l-1.3-7.1h-8.4l-1.1-10.5h-9.4v-40.6l2.5-2.5l3-7.6
	l-6.8-6.2l-1.9,4.3l-6.8-11.3V91l2.2-6.2l-4.9-6V66.6h-6.8v9.5h-2.8V59.2h8.5v-1c0-3.5-1.7-7.9-5.5-13.8c-1.1-1.5-2-2.9-2.8-4.1
	c-1.9-2.8-3.3-4.8-4.4-5.8l-1.1-11.3l-3.7-1.1V8.8H426v13.3l-4.7,1.1l-1.1,11.4c-7.1,6.1-10.6,14.1-10.6,23.6v1h7.4v16.9h-1.7v-9.5
	h-6.8v12.2l-4.9,6l2.8,6.2v22.6l-6.5,11.5l-3-4.5l-5.5,6.2l3,7.8l4.5,1.5v31.9h-26.3l4-4.4v-9.8h-5.3v-33.2h5.3v-18.4h-6.4v-5.7
	h-23.3V84.9h8.5V71.9h-6.7l-4.4-9.3c-0.7-6.2-1.8-12.9-3.5-20.5c-3.2-14.7-7.8-28-14-40.7c-10.1-21-24.7-35.9-44.9-45.6l-4.2-1.4
	V-59h-6.3v-16.9h-6.9v-25.4h3.7v-10.4h-4.8v-7.8h-2.1v-18h4.8v-5.2l-0.5-0.3c-4.1-2.6-7.2-5.7-9.7-9.7c-2.6-4.2-5.7-7.9-9.9-11.6
	v-10.7h0.8l1.4-6.4l-3.4-1.1v-5.1h-6.2v5.1l-3.4,1.1l1.5,6.4h0.8l0,10.6c-5.3,4.2-8.5,7.8-10.4,11.6c-2.4,3.8-5.3,6.8-9.2,9.7
	l-0.4,0.3v5.2h4.2v18h-1.6v7.8h-4.8v10.4h3.7v25.4h-6.9V-59h-6.3v13.4l-4.6,1.4l-0.2,0.1C181.1-33.9,166.5-19,156.5,1.4
	c-9.6,19.5-15.3,40.1-17,61.2l-4.4,9.2h-7.2v13.1h9v11.7h-23.3v5.7h-7.4v18.4h6.3v33.2h-6.3v9.8l4.8,4.4h-26v-31.9l4.5-1.5l3.1-7.9
	l-6.9-6.2l-1.9,4.2l-6.3-11.2V91l2.8-6.2l-4.9-6V66.6h-7.3v9.5h-1.7V59.2h8.1L74.3,58c-0.7-4.1-1.9-8.3-3.8-12.4
	c-2.6-5.1-5.2-8.9-7.8-11.1V23.2l-4.7-1.1V8.8h-5.7v13.3L48,23.2l-0.5,11.2c-2.1,1.4-4,4.5-6.8,9.2l-0.5,0.8
	c-3.7,5.8-5.4,10.2-5.4,13.7v1h7.4v16.9h-1.7v-9.5h-6.8v12.1l-6.1,6L31,91v22.5L23.3,125l-2-4.5l-5.6,6.4l2.9,7.6l2.5,2.5v40.6h-9.5
	l-1,10.5H1.1l-1.3,7.2l4.3,3.2V249.9z"/>
</svg>
